# Blender v2.82 (sub 7) OBJ File: ''
# www.blender.org
o Gripper_Base_Gripper_Base.001
v -0.010088 0.010802 0.357000
v 0.010088 0.010802 0.357000
v 0.010088 -0.010802 0.357000
v -0.010088 -0.010802 0.357000
v -0.010088 0.010802 0.363344
v -0.010088 -0.010802 0.363344
v 0.010088 -0.010802 0.363344
v 0.010088 0.010802 0.363344
vn 0.0000 0.0000 -1.0000
vn 0.0000 0.0000 1.0000
vn 1.0000 0.0000 -0.0000
vn -1.0000 0.0000 0.0000
vn 0.0000 -1.0000 0.0000
vn 0.0000 1.0000 -0.0000
s off
f 1//1 2//1 3//1
f 3//1 4//1 1//1
f 5//2 6//2 7//2
f 7//2 8//2 5//2
f 3//3 2//3 8//3
f 8//3 7//3 3//3
f 1//4 4//4 6//4
f 6//4 5//4 1//4
f 4//5 3//5 7//5
f 7//5 6//5 4//5
f 2//6 1//6 5//6
f 5//6 8//6 2//6
